# File created by Blade
# Date/Time:  Tue Jan 27 20:07:51 2015
# Frame Rate: 120.000 fps
#------------------------------------------------------
:FULLY-SPECIFIED
:DEGREES
2820
root 4.968708 33.102631 -3.754723 13.796951 -31.630442 -19.984065
Spine -0.436632 23.969800 4.894674
Head 15.146710 -3.961188 5.908495
LeftShoulder -16.024663 2.725222 27.479760
LeftArm -12.444665 -30.824005 -74.070258
LeftForeArm -30.207106 0.000000 124.726033
LeftHand 10.286362 -0.000000 -27.598752
LeftHandThumb1 -26.253704 0.000000 33.147579
RightShoulder -12.965014 -10.590928 -21.523588
RightArm 16.977312 -30.308105 92.565974
RightForeArm -15.497134 -0.000000 15.331776
RightHand 17.245410 -0.000000 3.664936
RightHandThumb1 -24.326973 -0.000000 -32.862282
LeftUpLeg 6.252290 15.470253 7.243969
LeftLeg -4.872497 -0.000000 0.000000
LeftFoot -19.748920 18.201758 -16.323223
LeftToeBase 19.220892 -0.000000 -0.000000
RightUpLeg 13.532463 -35.503707 -37.512270
RightLeg 7.078752 -0.000000 -0.000000
RightFoot 29.804809 -25.199300 17.169273
RightToeBase 16.671696 -0.000000 -0.000000
2821
root 4.982270 33.096074 -3.761579 13.778606 -31.786884 -19.898032
Spine -0.410304 24.101333 4.850073
Head 15.135310 -3.835245 5.815172
LeftShoulder -16.080779 2.783165 27.450298
LeftArm -12.354728 -30.808783 -74.189920
LeftForeArm -30.223278 -0.000000 124.726675
LeftHand 10.295613 -0.000000 -27.969877
LeftHandThumb1 -26.253704 0.000000 33.147579
RightShoulder -12.923232 -10.532195 -21.585332
RightArm 17.056494 -30.335876 92.508861
RightForeArm -15.443800 -0.000000 15.359419
RightHand 17.149365 -0.000000 3.899066
RightHandThumb1 -24.326973 -0.000000 -32.862282
LeftUpLeg 6.225085 15.476215 7.104265
LeftLeg -4.847545 -0.000000 0.000000
LeftFoot -19.759708 18.318637 -16.305275
LeftToeBase 19.259222 -0.000000 -0.000000
RightUpLeg 13.168855 -35.477568 -37.237245
RightLeg 7.720264 -0.000000 -0.000000
RightFoot 29.785799 -25.246519 17.235097
RightToeBase 16.061110 -0.000000 -0.000000
2822
root 4.992479 33.089998 -3.765796 13.739904 -31.971354 -19.830183
Spine -0.361822 24.268482 4.814926
Head 15.148274 -3.717771 5.779806
LeftShoulder -16.103049 2.797597 27.447001
LeftArm -12.332068 -30.764863 -74.275629
LeftForeArm -30.196036 -0.000000 124.748400
LeftHand 10.275596 -0.000000 -28.029176
LeftHandThumb1 -26.253704 0.000000 33.147579
RightShoulder -12.901560 -10.467081 -21.633916
RightArm 17.155354 -30.605478 92.356960
RightForeArm -15.263700 0.000000 15.398527
RightHand 17.170968 -0.000000 3.565877
RightHandThumb1 -24.326973 -0.000000 -32.862282
LeftUpLeg 6.257776 15.517673 6.992471
LeftLeg -4.859451 -0.000000 0.000000
LeftFoot -19.811723 18.449040 -16.393778
LeftToeBase 19.376026 -0.000000 -0.000000
RightUpLeg 12.800942 -35.433843 -36.961975
RightLeg 8.465990 -0.000000 -0.000000
RightFoot 29.639820 -25.253892 17.360750
RightToeBase 16.154604 -0.000000 -0.000000
2823
root 4.959893 33.086558 -3.739889 13.603448 -32.609781 -19.974438
Spine -0.177914 24.940632 4.837005
Head 15.273188 -3.672556 5.930663
LeftShoulder -16.085013 2.851114 27.546963
LeftArm -12.294809 -30.666325 -74.300365
LeftForeArm -30.222000 -0.000000 124.732063
LeftHand 10.269465 -0.000000 -28.030431
LeftHandThumb1 -26.253704 0.000000 33.147579
RightShoulder -12.928606 -10.448307 -21.574803
RightArm 17.095689 -30.426612 92.468761
RightForeArm -15.508936 0.000000 15.395358
RightHand 17.209553 -0.000000 3.506779
RightHandThumb1 -24.326973 -0.000000 -32.862282
LeftUpLeg 6.925857 16.273250 7.142135
LeftLeg -5.205100 -0.000000 0.000000
LeftFoot -19.614453 18.178321 -16.359526
LeftToeBase 19.280916 -0.000000 -0.000000
RightUpLeg 12.335989 -34.860814 -36.487665
RightLeg 9.178404 -0.000000 -0.000000
RightFoot 29.496082 -25.354250 17.430591
RightToeBase 16.231756 -0.000000 -0.000000
2824
root 5.001510 33.073119 -3.758940 13.624575 -32.519900 -19.719560
Spine -0.266217 24.787256 4.715131
Head 15.248387 -3.562226 5.798771
LeftShoulder -16.114637 2.819946 27.506709
LeftArm -12.306192 -30.596840 -74.370494
LeftForeArm -30.111492 -0.000000 124.744564
LeftHand 10.244133 -0.000000 -27.759058
LeftHandThumb1 -26.253704 0.000000 33.147579
RightShoulder -12.876768 -10.348227 -21.736157
RightArm 17.124857 -30.334150 92.489593
RightForeArm -15.489739 -0.000000 15.435359
RightHand 17.208083 -0.000000 3.490363
RightHandThumb1 -24.326973 -0.000000 -32.862282
LeftUpLeg 6.538369 15.815081 6.784379
LeftLeg -5.004139 -0.000000 0.000000
LeftFoot -19.723260 18.593428 -16.243627
LeftToeBase 19.292551 -0.000000 -0.000000
RightUpLeg 11.953601 -35.244307 -36.387012
RightLeg 10.194881 -0.000000 -0.000000
RightFoot 29.318616 -25.302723 17.665491
RightToeBase 16.416532 -0.000000 -0.000000
2825
root 5.016304 33.063989 -3.763904 13.562997 -32.645936 -19.586369
Spine -0.238600 24.873714 4.636327
Head 15.276369 -3.499785 5.807977
LeftShoulder -16.118600 2.803298 27.526661
LeftArm -12.299031 -30.507637 -74.416919
LeftForeArm -30.093872 -0.000000 124.731855
LeftHand 10.244927 0.000000 -27.788040
LeftHandThumb1 -26.253704 0.000000 33.147579
RightShoulder -12.859243 -10.297128 -21.793266
RightArm 17.171628 -30.299794 92.468592
RightForeArm -15.288397 -0.000000 15.495475
RightHand 17.382509 -0.000000 3.035841
RightHandThumb1 -24.326973 -0.000000 -32.862282
LeftUpLeg 6.512453 15.688513 6.608604
LeftLeg -4.976464 -0.000000 0.000000
LeftFoot -19.807151 18.792184 -16.323157
LeftToeBase 19.444443 -0.000000 -0.000000
RightUpLeg 11.588866 -35.376699 -36.196807
RightLeg 11.203039 -0.000000 -0.000000
RightFoot 29.226785 -25.180688 17.748512
RightToeBase 16.367375 -0.000000 -0.000000
